<svg width="215" height="38" viewBox="0 0 215 38" fill="none" xmlns="http://www.w3.org/2000/svg">
<path d="M9.26 11.7567L11.85 9.16667C11.85 10.45 11.8733 15.6767 11.9667 19.34L7.86 23.4C7.88333 22.5133 7.86 21.3 7.83667 20.0167C3.68333 20.1333 1.67667 17.52 1.67667 13.4833C1.67667 9.4 5.50333 4.78 11.4533 4.78C16.5867 4.78 20.4833 7.51 22.0233 11.1967L18.6633 14.23C17.31 10.17 14.1133 8.28 9.44667 8.28C4.75667 8.28 2.02667 11.43 2.02667 14.65C2.02667 17.45 3.77667 20.04 7.83667 19.9933C7.79 17.4733 7.72 14.65 7.86 13.3433C8.11667 12.9233 8.42 12.5967 9.26 11.7567ZM13.81 18.1033L16.9367 15.2567C20.11 15.91 22.77 18.5233 22.77 21.3C22.77 22.5833 22.49 23.4 21.7433 24.0767C20.9967 24.73 19.9933 25.4533 19.06 26.27C18.1967 26.9933 17.0067 27.9967 16.26 28.58C15.49 29.1867 15.0233 29.42 14.16 29.42C11.1033 29.42 7.06667 27.1333 3.89333 27.1333C2.86667 27.1333 1.79333 28.02 0.37 29.4433C4.01 25.7333 6.06333 23.82 7.3 23.82C9.58667 23.82 15.3267 26.34 18.22 26.34C18.64 26.34 18.9667 26.2 19.2 26.0833C19.2933 25.5933 19.3867 24.9167 19.3867 24.24C19.3867 21.3467 16.9367 18.8267 13.81 18.1033ZM33.2908 26.34C32.8241 26.69 30.3508 28.6733 29.4641 29.2333C29.2774 29.35 29.0441 29.4433 28.8574 29.4433C28.5308 29.4433 27.5508 29.0933 26.9908 28.6267C26.3374 28.1133 26.0341 27.46 26.0341 26.5733V13.53C26.0341 11.85 25.7308 11.43 24.4708 11.3367C26.4308 11.36 28.9974 11.22 30.2108 10.9633C30.2108 16.89 30.2341 24.45 30.3041 25.4533C30.4908 25.9667 31.6341 26.6667 32.3108 26.6667C32.5908 26.6667 32.9641 26.5267 33.2908 26.34ZM30.7008 14.1133L33.7574 10.9633C36.1608 12.5033 37.0474 12.6667 37.9574 12.6667C38.4708 12.6667 38.8674 12.48 39.8241 11.5467C36.0674 15.3267 35.2274 15.8167 34.2941 15.8167C33.3841 15.8167 32.5208 15.28 30.7008 14.1133ZM51.4875 29.1867L47.6142 25.92C44.9308 28.3233 44.2075 29.28 42.5508 29.28C41.2675 29.28 40.1242 28.8367 39.1208 28.23C37.1375 27.0167 36.2508 25.1733 36.3442 20.5067L36.3675 19.27C36.3675 18.5 36.5775 17.8467 37.4642 16.8667C38.2108 16.05 39.1208 15.2333 40.4742 13.88C41.8275 12.5267 43.3208 10.87 44.5108 10.87C46.0742 10.87 48.6175 12.8533 50.0175 14.23L40.8942 22.1167C41.2908 24.0767 42.1308 24.9633 43.7175 25.6867C44.5342 26.06 45.4442 26.2233 45.9575 26.2233C46.6108 26.2233 47.2642 26.1067 47.7542 25.8033C48.2208 25.5233 49.8075 24.24 50.9508 23.1433L51.4875 29.1867ZM40.5675 17.4033C40.5675 19.4567 40.6608 20.95 40.8942 22.0933L46.3542 17.1467C44.9308 15.84 42.7142 13.74 40.5675 13.9733V17.4033ZM50.4295 14.23C51.3395 13.39 52.6695 12.2467 53.3228 11.7567C54.3028 11.01 54.8395 10.87 55.4228 10.87C56.4261 10.87 57.4061 11.2433 58.4095 11.8267C59.7861 12.62 60.4161 13.3433 60.4161 14.4867C60.4161 17.5433 60.2061 22.7 60.2061 24.94C60.2061 28.4167 61.3495 28.8833 62.1428 29H56.6828C56.0761 28.4867 56.0295 27.46 56.0295 24.73C56.0295 23.75 56.2395 19.2467 56.2395 16.4933C56.2395 15.35 55.5161 14.6733 53.9061 14.0433C52.9261 13.67 52.4361 13.5767 51.8295 13.5767C51.4328 13.5767 51.1528 13.67 50.4295 14.23ZM48.0261 25.92L48.1661 25.8033C48.6328 25.5233 50.2195 24.24 51.3628 23.1433L55.1661 26.13L51.8995 29.1867L48.0261 25.92ZM68.9813 21.2767L72.1313 18.64C73.5546 20.8333 75.5613 23.96 76.4946 25.1033C77.3346 26.1533 77.778 26.34 78.268 26.34C78.688 26.34 78.968 26.2 79.458 25.8267C78.7813 26.5033 76.798 28.44 75.8646 29.07C75.6546 29.21 75.398 29.3033 75.2113 29.3033C74.558 29.3033 73.9746 28.8133 73.0646 27.5767C72.1546 26.34 70.3113 23.5167 68.9813 21.2767ZM70.708 14.1833L74.068 11.01C75.8413 12.3867 77.218 13.5067 77.918 13.81L74.5346 16.75C73.8813 16.47 72.2946 15.5367 70.708 14.1833ZM68.6546 29H63.3113C63.4746 28.9067 63.638 28.79 63.6613 27.6933C63.778 22.0467 63.8013 14.5567 63.778 11.0567C63.7546 8.02333 63.3346 7.62667 60.2546 7.53333C64.1513 7.55667 66.5313 7.23 67.8146 7.02C67.8613 13.5767 67.838 21.0433 67.9546 27.46C67.978 28.6967 68.1646 28.8833 68.6546 29ZM80.1868 5.80667C80.1868 5.43333 80.3734 5.29333 80.7701 5.29333C81.4001 5.29333 82.1468 5.45667 82.7301 5.62C83.1034 3.70667 83.7334 1.67667 84.0601 0.58C83.4068 3.56667 82.5201 6.88 82.2168 11.22C83.0801 11.15 83.8968 11.0567 84.4101 10.9633C84.4101 14.2067 84.4334 21.0433 84.5501 27.46C84.5734 28.6967 84.7601 28.8833 85.2501 29H79.7668C79.9301 28.9067 80.0934 28.79 80.1168 27.6933C80.2334 22.0467 80.2334 15.7233 80.2334 13.4833C80.1401 11.8267 79.9301 11.43 79.1601 11.3367C79.9768 11.36 81.1201 11.29 82.1934 11.22C81.9834 8.25667 80.1868 6.74 80.1868 5.80667ZM103.074 29H97.6142C97.0075 28.4867 96.9609 27.46 96.9609 24.73C96.9609 23.75 97.1709 19.0133 97.1709 17.5667C97.1709 16.6333 97.0309 15.42 96.5642 14.8833C95.7242 13.88 94.7675 13.4833 93.9042 13.4833C93.5075 13.4833 92.8309 14.0433 92.1542 14.6267C92.1542 18.1733 92.2009 22.91 92.2942 27.46C92.3175 28.6967 92.5042 28.8833 92.9942 29H87.5109C87.6742 28.9067 87.8375 28.79 87.8609 27.6933C87.9775 22.0467 87.9775 16.33 87.9775 15.07C87.9775 12.1067 87.6742 11.43 86.4142 11.3367C88.3742 11.36 91.1742 11.1033 92.1542 10.9633V14.58C93.0175 13.6933 94.3475 12.55 95.4442 11.78C96.2375 11.22 96.7742 10.9633 97.3575 10.9633C99.3409 10.9633 101.348 12.8767 101.348 15.21C101.348 17.45 101.138 22.7 101.138 24.94C101.138 28.4167 102.281 28.8833 103.074 29ZM113.698 33.3867C113.698 31.4267 113.464 28.9533 113.348 26.1767C110.361 28.6967 109.778 29.0233 108.868 29.0233C106.488 29.0233 104.084 27.2967 104.084 23.2367C104.084 18.9667 105.321 16.8667 108.168 14.2067C109.358 13.0867 110.408 12.3167 111.038 11.8267C111.668 11.3367 112.088 11.2433 112.438 11.22C113.208 11.1733 114.164 11.15 115.331 11.15C116.474 11.15 117.781 11.1733 118.784 11.2433L117.314 12.69V19.97C117.314 25.8733 117.664 29.07 117.664 30.2833C117.664 30.8433 117.571 31.2167 116.871 31.8C114.864 33.5033 112.694 35.09 110.268 36.8867C110.104 37.0033 110.011 37.0733 109.824 37.0733C109.288 37.0733 108.028 36.77 106.278 35.6967C104.481 34.5767 103.758 33.83 103.758 33.2C103.758 33.0833 103.781 32.9667 103.804 32.8733C105.928 31.4267 107.888 30.1433 109.568 29C109.054 29.3733 108.751 29.6067 108.028 30.19C107.678 30.47 107.468 30.68 107.351 30.9367C107.421 31.38 108.144 32.1733 109.614 33.0367C111.411 34.0867 112.531 34.3667 113.184 34.3667C113.301 34.3667 113.394 34.3433 113.418 34.32C113.558 34.2267 113.698 34.0633 113.698 33.3867ZM112.181 26.5033C112.578 26.5033 112.858 26.4567 113.348 26.13C113.301 25.0333 113.278 23.89 113.278 22.7233V17.8933C113.278 17.1 113.301 16.6567 113.371 16.19L115.144 14.5333C113.978 14.44 112.648 14.37 111.131 14.37C109.568 14.37 109.008 14.4167 108.821 14.4633C108.401 15.3733 108.028 17.45 108.028 20.6467C108.028 25.5467 110.058 26.5033 112.181 26.5033ZM149.738 20.7633C148.921 24.6833 145.608 29.91 139.938 29.91C134.011 29.91 130.838 26.1767 130.838 21.0433C130.838 15.7233 133.615 12.6433 137.068 9.44667C135.131 11.4067 134.315 13.7167 134.315 17.8933C134.315 23.4933 137.138 26.5033 142.925 26.5033C146.565 26.5033 149.038 23.8433 149.738 20.7633ZM145.328 10.5433C142.435 10.5433 135.855 8.63 132.518 8.63C131.421 8.63 130.745 9.00333 129.391 10.24C133.265 6.18 134.711 5.34 135.995 5.34C138.911 5.34 145.795 7.23 148.571 7.23C150.158 7.23 150.625 6.81 151.278 6.13333C148.035 9.79667 147.311 10.5433 145.328 10.5433ZM141.851 10.3333L141.968 21.2533L137.885 24.94L137.838 14.2533C138.095 13.88 138.585 13.3667 139.401 12.5967L141.851 10.3333ZM163.646 24.94C163.646 28.4167 164.789 28.8833 165.583 29H160.123C159.586 28.5567 159.493 27.74 159.469 25.78C158.583 26.6433 157.276 27.7867 156.179 28.5567C155.386 29.1167 154.849 29.3733 154.266 29.3733C152.283 29.3733 150.276 27.46 150.276 25.1267C150.276 22.8867 150.486 17.6367 150.486 15.3967C150.486 11.9667 150.183 11.43 148.923 11.3367C150.883 11.36 153.683 11.1033 154.663 10.9633C154.663 15.2333 154.453 21.3233 154.453 22.77C154.453 23.7033 154.593 24.9167 155.059 25.4533C155.899 26.4567 156.856 26.8533 157.719 26.8533C158.093 26.8533 158.793 26.2933 159.469 25.7333V24.73C159.469 21.5567 159.493 16.33 159.493 15.07C159.493 12.1067 159.189 11.43 157.929 11.3367C159.889 11.36 162.689 11.1033 163.669 10.9633C163.669 14.2067 163.646 21.3 163.646 24.94ZM182.338 29H176.878C176.272 28.4867 176.225 27.46 176.225 24.73C176.225 23.75 176.435 19.0133 176.435 17.5667C176.435 16.6333 176.295 15.42 175.828 14.8833C174.988 13.88 174.032 13.4833 173.168 13.4833C172.772 13.4833 172.095 14.0433 171.418 14.6267C171.418 18.1733 171.465 22.91 171.558 27.46C171.582 28.6967 171.768 28.8833 172.258 29H166.775C166.938 28.9067 167.102 28.79 167.125 27.6933C167.242 22.0467 167.242 16.33 167.242 15.07C167.242 12.1067 166.938 11.43 165.678 11.3367C167.638 11.36 170.438 11.1033 171.418 10.9633V14.58C172.282 13.6933 173.612 12.55 174.708 11.78C175.502 11.22 176.038 10.9633 176.622 10.9633C178.605 10.9633 180.612 12.8767 180.612 15.21C180.612 17.45 180.402 22.7 180.402 24.94C180.402 28.4167 181.545 28.8833 182.338 29ZM183.361 21.3C183.361 18.5933 183.781 17.87 184.854 16.5167C185.601 15.5833 186.114 15.0233 187.491 13.6467C188.867 12.27 190.524 10.87 191.411 10.87C192.974 10.87 195.237 12.13 196.637 13.5067L187.467 21.58C187.584 23.96 188.074 24.7533 189.824 25.8267C191.201 26.69 192.507 26.83 193.557 26.83C194.514 26.83 194.911 26.69 195.844 25.7333C194.957 26.7833 193.231 28.16 192.157 28.86C191.341 29.3967 190.711 29.7 189.754 29.7C188.471 29.7 187.257 29.3967 186.114 28.65C183.664 27.04 183.361 25.2667 183.361 21.3ZM187.421 17.59C187.421 19.27 187.397 20.53 187.467 21.5333L192.927 16.47C191.527 15.1167 189.777 13.9733 188.144 13.9733C187.887 13.9733 187.794 13.95 187.607 13.9967C187.444 14.8367 187.421 16.0267 187.421 17.59ZM208.035 26.4333C208.129 25.9433 208.245 25.29 208.245 24.6133C208.245 21.7433 206.752 19.48 203.019 19.48C202.739 19.48 202.342 19.55 202.155 19.62L204.979 16.68C205.259 16.61 205.865 16.5633 206.612 16.5633C209.739 16.5633 211.722 18.8267 211.722 21.5333C211.722 22.8167 211.442 23.6333 210.695 24.31C209.949 24.9633 208.969 25.7567 208.035 26.5733C207.172 27.2967 206.262 28.09 205.515 28.7433C204.699 29.4433 204.512 29.5133 203.579 29.5133C200.685 29.5133 197.349 28.16 195.412 26.5967L198.562 23.33C200.149 24.9867 203.882 26.4567 207.569 26.4567C207.685 26.4567 207.825 26.4567 208.035 26.4333ZM208.432 15C206.052 15 202.459 13.5533 200.522 13.5533C199.892 13.5533 199.542 13.6233 199.309 13.74C199.169 14.0667 199.099 14.51 199.099 15C199.099 16.1667 200.312 18.3367 201.922 19.83L198.772 23.0967C196.975 21.5333 196.392 20.2967 196.392 18.5933C196.392 17.1 197.045 15.6767 198.445 14.3933C199.682 13.25 200.662 12.3867 201.525 11.64C201.992 11.22 202.342 11.01 202.622 10.8933C202.949 10.7533 203.252 10.6367 203.719 10.6367C205.819 10.6367 209.785 11.78 211.769 11.78C212.585 11.78 213.192 11.4533 214.545 10.2167C210.485 14.3 209.482 15 208.432 15Z" fill="#010101"/>
</svg>
